<?xml version="1.0" encoding="UTF-8" standalone="no"?>
<!-- Created with Inkscape (http://www.inkscape.org/) -->

<svg
   xmlns="http://www.w3.org/2000/svg"
   viewBox="0 0 1300 1300"
   id="svg2"
   version="1.1"
   >
  <defs
     id="defs4" />
  <metadata
     id="metadata7">
    </metadata>
  <g
     id="layer1"
     transform="translate(0,247.63784)">
    <path
       d="m 621.64113,1049.3941 c -69.64605,-3.1763 -136.45312,-16.879 -201.90912,-41.414 C 382.18789,993.9072 338.95843,972.42624 304.20623,950.57514 226.18232,901.51543 160.45129,837.65383 109.18313,761.09873 49.25527,671.61263 13.17542,570.12993 3.27055,463.19603 c -2.05283,-22.1626 -2.48971,-32.7709 -2.4869,-60.3817 0.006,-27.5646 0.40178,-37.1404 2.4901,-59.7652 C 14.81156,218.04946 62.67552,99.59981 141.59134,0.7529589 c 25.34455,-31.7456299 54.35063,-61.6996299 86.03543,-88.8470809 17.80256,-15.253208 36.79273,-29.692988 57.55433,-43.763228 91.9985,-62.348 198.06492,-99.93103 308.91787,-109.4604 20.73559,-1.78254 30.35473,-2.14684 56.68467,-2.14684 26.32992,0 35.94905,0.3643 56.68466,2.14684 128.80602,11.07269 251.15122,60.15728 351.9927,141.2188 89.143,71.657129 158.6232,166.877853 199.271,273.09411 20.7869,54.31835 34.2011,111.97931 39.5614,170.05397 2.0886,22.6248 2.4873,32.2006 2.4902,59.7652 0,27.6108 -0.4339,38.2191 -2.4871,60.3817 -11.5886,125.1126 -59.4019,243.4456 -138.2931,342.262 -33.2449,41.641 -73.9019,81.2504 -115.5078,112.53141 -33.5204,25.2024 -63.14988,43.6514 -99.81438,62.1508 -53.8072,27.14916 -106.8631,45.48446 -165.74079,57.27796 -50.26721,10.0689 -106.02478,14.3137 -157.2993,11.9759 z m 56.56064,-43.0808 c 41.60487,-1.982 81.89898,-7.8335 120.83535,-17.54676 161.1759,-40.2092 299.34538,-145.32741 381.45248,-290.20581 8.0722,-14.2426 9.2444,-16.7623 8.7805,-18.8733 -0.2196,-1.0005 -1.4839,-3.0715 -2.8094,-4.6029 -1.3255,-1.532 -2.41,-3.024 -2.41,-3.3161 0,-0.2921 -0.7623,-1.4289 -1.6943,-2.5261 -0.9321,-1.0971 -2.5262,-3.4549 -3.5429,-5.2393 -1.5786,-2.771 -4.9494,-7.9709 -9.8947,-15.2643 -0.6577,-0.9693 -2.0275,-3.1026 -3.0442,-4.74 -1.9401,-3.1257 -7.1269,-10.667 -10.5709,-15.3697 -1.1168,-1.5248 -2.7761,-4.0202 -3.6879,-5.5451 -0.9113,-1.5253 -2.135,-3.3274 -2.7194,-4.005 -0.5839,-0.6779 -1.7635,-2.6355 -2.6212,-4.35 -0.8577,-1.7144 -3.1061,-5.1594 -4.9972,-7.6552 -1.8906,-2.4957 -3.4374,-4.8885 -3.4374,-5.3175 0,-0.4289 -1.3526,-2.5447 -3.0064,-4.7016 -1.653,-2.157 -3.728,-5.4316 -4.6104,-7.2765 -0.8828,-1.845 -2.9263,-4.9353 -4.542,-6.8669 -1.6152,-1.9321 -4.0459,-5.3556 -5.4014,-7.6082 -1.3554,-2.2526 -3.5789,-5.8014 -4.9411,-7.8859 -1.3618,-2.085 -2.8232,-4.484 -3.247,-5.3309 -1.5362,-3.0689 -8.8845,-14.4363 -11.6232,-17.981 -0.9645,-1.2482 -2.5851,-3.6914 -3.6019,-5.4288 -1.0168,-1.7381 -2.877,-4.5984 -4.1344,-6.3567 -1.2575,-1.7586 -2.8275,-4.1785 -3.4896,-5.378 -0.6613,-1.1996 -2.3282,-3.3405 -3.7034,-4.7575 -1.3751,-1.4171 -3.348,-4.256 -4.3844,-6.3091 -1.0365,-2.0529 -3.0224,-4.8377 -4.4139,-6.188 -3.1831,-3.0886 -6.676,-7.9642 -6.676,-9.3177 0,-0.5668 -1.4839,-2.7858 -3.2969,-4.9311 -3.3692,-3.9857 -6.8636,-9.359 -8.9484,-13.7582 -0.642,-1.3554 -2.9325,-5.1561 -5.0899,-8.4462 -2.1567,-3.2894 -4.6849,-7.1711 -5.618,-8.6256 -2.8091,-4.3792 -4.6105,-6.891 -5.873,-8.1901 -0.6582,-0.6774 -1.8269,-2.4731 -2.5968,-3.9894 -0.7692,-1.5165 -2.1557,-3.464 -3.0809,-4.3282 -0.9253,-0.8643 -2.3027,-2.7876 -3.0609,-4.2744 -1.6385,-3.2112 -5.1229,-8.405 -10.0862,-15.0328 -1.9887,-2.6553 -4.5809,-6.537 -5.7608,-8.6262 -3.2904,-5.8253 -8.2047,-12.3823 -10.3106,-13.7581 -3.2031,-2.0923 -8.0197,-2.2775 -13.84738,-0.533 -4.7587,1.4244 -5.8309,2.0158 -10.7145,5.911 -1.089,0.8686 -3.3357,2.3584 -4.9925,3.3111 -2.7568,1.5851 -3.3539,1.697 -7.0335,1.3201 -3.0133,-0.309 -4.651,-0.8595 -6.5377,-2.1984 -1.3843,-0.9827 -5.1434,-3.3726 -8.3534,-5.3106 -6.8722,-4.1495 -17.4564,-13.9825 -19.1611,-17.8015 -1.3936,-3.1221 -2.0775,-9.1129 -1.5359,-13.4495 0.5878,-4.7061 3.2871,-7.6992 10.1271,-11.2318 8.7999,-4.5446 13.1082,-6.9414 14.1688,-7.882 0.5529,-0.4907 2.4545,-1.6826 4.225,-2.6485 1.7704,-0.966 4.4044,-2.7961 5.8532,-4.0669 1.449,-1.2708 5.165,-4.5157 8.2589,-7.2109 11.1651,-9.72768 11.6743,-11.37432 6.2319,-20.17274 -4.7088,-7.61177 -12.0073,-18.48687 -14.406,-21.46542 -1.1002,-1.36656 -2.5707,-3.81491 -3.2679,-5.44076 -0.6971,-1.62582 -2.2014,-4.11212 -3.3429,-5.5251 -1.1413,-1.413 -2.4319,-3.2622 -2.868,-4.10938 -1.1907,-2.31521 -9.9869,-12.16651 -11.289,-12.64305 -1.2117,-0.44329 -16.7728,6.89883 -24.2527,11.44304 -2.2023,1.33778 -4.2436,2.43228 -4.5375,2.43228 -1.2935,0 -10.7082,5.05084 -11.4864,6.16234 -0.4748,0.67723 -1.1974,1.2313 -1.6072,1.2313 -0.4093,0 -1.7788,0.55452 -3.0434,1.23226 -1.2645,0.67778 -2.6644,1.23229 -3.1106,1.23229 -0.4468,0 -2.5963,1.17904 -4.7776,2.62013 -2.1811,1.44108 -6.3223,3.55336 -9.2026,4.69398 -2.8803,1.1406 -6.3663,2.71692 -7.7463,3.50306 -5.9299,3.37766 -15.5981,8.18877 -18.5035,9.20756 -1.7527,0.61448 -3.8104,0.93566 -4.6481,0.72542 -1.5886,-0.3987 -6.6167,-7.07355 -9.1327,-12.12423 -0.7599,-1.52491 -2.2923,-3.74304 -3.4057,-4.92911 -1.1129,-1.18606 -2.2293,-2.84963 -2.4807,-3.69681 -0.5659,-1.91034 -6.8869,-12.75232 -7.7425,-13.28133 -0.3447,-0.21288 -1.2981,-1.81711 -2.1195,-3.56505 -0.8214,-1.74796 -2.9965,-5.5348 -4.8345,-8.41524 -1.8375,-2.88049 -4.6532,-7.59392 -6.2576,-10.47435 -6.1488,-11.0431 -8.1673,-12.78374 -13.6214,-11.74777 -1.6467,0.3128 -3.7748,0.8659 -4.7289,1.22912 -0.9536,0.36327 -2.97282,0.66043 -4.48655,0.66043 -1.51364,0 -3.74765,0.41589 -4.96428,0.92421 -1.21653,0.50832 -3.63381,0.92444 -5.37126,0.92469 -1.73764,3.1e-4 -5.21708,0.42978 -7.73201,0.95442 -2.51483,0.52463 -7.3671,1.35752 -10.78246,1.85086 -3.41549,0.4933 -9.53712,1.44713 -13.60367,2.11963 -4.06649,0.67245 -10.03793,1.61277 -13.26987,2.08951 -3.23185,0.47678 -6.97489,1.14602 -8.31786,1.48726 -6.06443,1.54103 -8.51068,1.97291 -11.23044,1.9829 -1.60478,0.006 -4.85859,0.42998 -7.23078,0.94249 -2.37211,0.51251 -7.25213,1.02625 -10.84455,1.14159 -3.59444,0.11535 -7.88897,0.64036 -9.55011,1.16735 -2.18477,0.69319 -6.70157,1.04041 -16.3523,1.25699 -13.33379,0.29925 -13.33379,0.29925 -15.1355,-1.64781 -0.99091,-1.0709 -2.19957,-2.53557 -2.68579,-3.25481 -0.48626,-0.71924 -2.00691,-2.7987 -3.37921,-4.62105 -1.37228,-1.82236 -3.26195,-4.64134 -4.19926,-6.26445 -0.93724,-1.62314 -2.48302,-3.84123 -3.43488,-4.92911 -1.49545,-1.70904 -3.50625,-5.60518 -7.15292,-13.8595 -0.49163,-1.11289 -0.8939,-3.25727 -0.8939,-4.7654 0,-3.75721 1.88984,-5.656 9.55015,-9.59573 3.38876,-1.74287 8.1022,-4.32816 10.47433,-5.74517 2.37211,-1.41702 6.66967,-3.63238 9.55015,-4.92305 2.88044,-1.29067 5.67239,-2.7304 6.20428,-3.19941 0.53197,-0.46905 2.47281,-1.38181 4.31296,-2.02837 1.84025,-0.64657 6.2571,-2.7235 9.81529,-4.61543 3.55817,-1.89189 8.41029,-4.40374 10.78241,-5.5819 2.37211,-1.17819 5.28339,-2.69296 6.46946,-3.36621 1.18605,-0.67331 3.40414,-1.82009 4.9291,-2.54853 8.12585,-3.88146 13.36245,-6.70163 14.10485,-7.5961 0.45837,-0.55228 1.18846,-1.0041 1.62249,-1.0041 0.43406,0 5.07142,-2.16584 10.30526,-4.81295 5.23383,-2.64712 10.90941,-5.41235 12.61234,-6.14489 1.70288,-0.73259 5.85793,-2.96244 9.23343,-4.95528 3.37545,-1.99279 7.44374,-4.12223 9.0407,-4.7321 1.59675,-0.60987 4.09848,-1.86675 5.55915,-2.7931 1.46058,-0.92638 3.30589,-1.89058 4.10003,-2.1427 1.99728,-0.63383 15.46565,-7.61706 16.60023,-8.60687 0.50859,-0.44352 3.62979,-2.21987 6.93609,-3.94754 3.3069,-1.72768 6.4952,-3.39363 7.0858,-3.70208 0.5902,-0.30845 3.4305,-1.73697 6.3109,-3.17446 16.5386,-8.25358 26.769,-14.19786 27.8218,-16.16495 0.7903,-1.4762 0.1661,-4.06295 -1.3796,-5.71993 -0.6556,-0.70298 -2.1737,-2.90756 -3.3725,-4.89906 -1.1993,-1.99151 -3.6921,-5.59438 -5.5398,-8.00642 -1.8473,-2.41205 -3.3587,-4.71295 -3.3587,-5.11315 0,-0.40021 -0.5085,-1.23586 -1.1294,-1.85699 -0.6215,-0.6211 -1.7998,-2.245907 -2.6187,-3.610637 -3.7469,-6.24289 -9.7081,-14.84896 -12.1601,-17.55572 -0.8243,-0.91029 -1.8172,-2.29661 -2.2059,-3.08069 -0.997,-2.01082 -3.398,-2.08634 -7.3212,-0.23038 -1.8336,0.86758 -3.6203,1.57738 -3.9695,1.57738 -0.3493,0 -0.9658,0.39806 -1.3695,0.88462 -0.4036,0.48653 -1.52747,1.05886 -2.49736,1.27188 -0.97,0.21297 -2.12913,0.83285 -2.57599,1.37743 -0.44696,0.54463 -3.03074,2.06203 -5.74175,3.37205 -2.71091,1.31001 -5.62262,2.77899 -6.46944,3.26432 -0.8473,0.48537 -5.00607,2.58024 -9.24198,4.6553 -4.23616,2.07505 -8.81096,4.56202 -10.16645,5.52661 -1.35553,0.964557 -3.12344,1.923357 -3.92878,2.130617 -0.80541,0.2073 -2.68712,1.31055 -4.18171,2.45174 -1.49448,1.14118 -3.79146,2.25632 -5.10432,2.47813 -1.3128,0.22181 -2.89355,0.96308 -3.51273,1.64725 -0.61917,0.68416 -2.93123,2.08637 -5.13799,3.11601 -2.2067,1.02963 -4.79596,2.52909 -5.75391,3.33215 -0.95789,0.80311 -2.10589,1.46017 -2.55096,1.46017 -0.9662,0 -9.48422,4.11866 -10.80274,5.22339 -0.50832,0.42588 -3.02873,1.89044 -5.60088,3.25461 -2.57219,1.36414 -6.75015,3.73898 -9.28448,5.27737 -2.53427,1.53842 -6.11362,3.51491 -7.95414,4.39227 -1.84052,0.87733 -5.84172,3.10714 -8.89159,4.95511 -3.0499,1.84802 -5.96113,3.54009 -6.46945,3.76015 -2.52503,1.09328 -7.8276,3.7265 -14.78733,7.34328 -4.23596,2.2013 -8.25621,4.17107 -8.934,4.37722 -0.67774,0.20621 -1.78677,0.87235 -2.46456,1.48036 -0.67773,0.60797 -2.89582,1.785 -4.9291,2.61552 -2.03322,0.83053 -5.18026,2.51929 -6.99343,3.75283 -1.81317,1.23351 -3.61537,2.24291 -4.0049,2.2431 -0.38952,1.9e-4 -2.51044,1.10985 -4.71314,2.46588 -2.2027,1.35602 -4.97534,2.78484 -6.16139,3.17515 -1.18607,0.39029 -3.37472,1.63739 -4.86366,2.77131 -1.48898,1.13389 -3.33923,2.06168 -4.11169,2.06168 -0.77246,0 -2.18822,0.65169 -3.1461,1.44819 -0.95791,0.79649 -3.68246,2.21407 -6.05463,3.15015 -2.37212,0.93606 -4.59021,1.91007 -4.92911,2.16441 -0.33884,0.25433 -2.9454,0.63351 -5.7924,0.84261 -5.1763,0.38021 -5.1763,0.38021 -7.76292,-2.22628 -2.27895,-2.2965 -2.63693,-3.04613 -3.01,-6.30329 -0.23292,-2.03328 -0.73471,-4.7374 -1.11518,-6.00919 -0.51904,-1.7351 -0.51117,-2.70844 0.0314,-3.89907 0.39766,-0.87267 0.85303,-3.34008 1.01203,-5.48311 0.34143,-4.60331 3.23584,-13.62768 5.17059,-16.1213 0.75059,-0.96731 2.71755,-3.83824 4.37102,-6.37981 1.65354,-2.54159 4.55917,-6.42323 6.45707,-8.62592 1.89786,-2.2027 5.4981,-6.41401 8.00047,-9.35843 5.37436,-6.32379 11.7619,-12.41114 16.05132,-15.29708 1.69439,-1.14 4.97445,-3.614247 7.28904,-5.498337 2.31454,-1.88413 5.94279,-4.67334 8.06284,-6.19828 2.12,-1.52496 5.5777,-4.02031 7.68385,-5.54526 12.04644,-8.72217 12.60833,-9.09538 22.55843,-14.98242 0.67779,-0.40098 2.89588,-1.87011 4.9291,-3.26474 2.03329,-1.39463 6.05359,-3.84126 8.93402,-5.43696 5.27748,-2.9236 12.66715,-7.45199 19.31144,-11.83409 1.97995,-1.30583 5.48731,-3.34468 7.79402,-4.53073 2.30678,-1.18606 4.71731,-2.63109 5.35663,-3.21118 0.63935,-0.58009 2.45696,-1.62733 4.03914,-2.32721 1.58217,-0.6999 3.65154,-1.91372 4.59853,-2.6974 0.94699,-0.7837 3.31207,-2.14532 5.25568,-3.0258 1.94356,-0.8805 4.43896,-2.284 5.5452,-3.11887 1.10631,-0.83488 3.11668,-1.97432 4.46759,-2.53214 1.3508,-0.5578 3.01439,-1.51106 3.69681,-2.11836 0.68236,-0.60729 4.98367,-3.12145 9.55852,-5.587024 4.57483,-2.46557 8.87239,-4.95777 9.55011,-5.53823 0.6778,-0.58041 2.89572,-1.85802 4.92931,-2.83911 2.03283,-0.98109 4.5283,-2.37374 5.5451,-3.0947401 1.0167,-0.72101 4.48236,-2.62362 7.70176,-4.22805 3.21893,-1.60439 7.65554,-4.04669 9.85806,-5.42731 4.30151,-2.6959799 5.56101,-3.3734899 22.48911,-12.0970099 6.0997,-3.14336 11.9658,-6.38135 13.0357,-7.19551 1.0699,-0.81418 5.6446,-3.19188 10.1664,-5.28372 8.221,-3.80336 8.221,-3.80336 16.847,-3.86312 8.3047,-0.0575 8.7173,2e-5 11.0903,1.54722 4.007,2.61282 10.2793,9.80038 13.1404,15.05826 3.8741,7.11955 8.3121,14.7602599 9.1601,15.7721099 0.4051,0.48267 1.6285,3.0859 2.7185,5.78492 1.6461,4.0731801 1.9654,5.6404701 1.8796,9.2202901 -0.1064,4.443584 0.014,4.799574 3.2767,9.616074 1.0083,1.48869 2.325,3.77606 2.9263,5.08307 0.6009,1.30702 2.4433,4.07966 4.094,6.16141 1.6505,2.08173 3.7602,5.30987 4.6876,7.17373 0.9278,1.8638 2.4042,4.15352 3.2813,5.08825 1.4935,1.59218 4.1288,5.6936 7.8153,12.16361 0.8692,1.52491 2.8145,4.43618 4.3237,6.46941 1.5091,2.03327 3.278,4.83614 3.9301,6.22865 0.6944,1.48195 2.1163,3.10662 3.4291,3.91798 2.243,1.38619 2.243,1.38619 7.0429,-0.52936 5.7968,-2.31316 9.5543,-2.44631 13.9375,-0.4939 5.3225,2.37077 11.5893,6.88478 14.7938,10.65635 8.1739,9.619597 9.1552,11.259587 12.0118,20.072367 1.5341,4.73287 1.8447,6.70491 1.8447,11.70167 0,7.41733 -1.3322,11.2844 -5.2774,15.31837 -3.0274,3.09568 -3.3874,4.74952 -1.4149,6.50682 0.7245,0.64555 1.6927,2.06128 2.1524,3.14605 0.7899,1.86708 4.9134,8.11453 13.1351,19.90056 6.45868,9.25894 5.93268,8.79644 9.52268,8.37893 3.4487,-0.40104 5.7286,0.0457 10.8404,2.12428 1.8643,0.75783 5.0119,2.03625 6.9958,2.84104 4.2394,1.71995 12.0602,7.60094 15.337,11.53294 1.2693,1.52324 3.3069,4.93616 4.5281,7.58434 2.105,4.56451 2.22,5.1511 2.2147,11.28425 -0.01,4.62573 -0.2764,6.98428 -0.9551,8.27601 -0.522,0.99364 -1.1419,3.34654 -1.377,5.22869 -0.235,1.88221 -0.9521,4.13137 -1.5926,4.99821 -1.1522,1.55827 -1.1484,1.61471 0.346,4.99386 0.8316,1.87979 3.0735,5.19459 4.9834,7.36636 1.9092,2.17178 4.6888,5.75084 6.1769,7.95353 1.4882,2.20269 3.646,4.74298 4.7961,5.64508 1.15,0.90198 2.8988,3.24584 3.886,5.20844 0.9877,1.96259 2.6358,4.41303 3.6632,5.44541 1.0275,1.03239 2.8125,3.26346 3.9672,4.95784 1.1548,1.69438 2.8349,4.0511 3.7341,5.23715 6.5226,8.60461 9.3282,12.41257 12.1836,16.53634 1.7981,2.59622 4.2454,6.05866 5.4385,7.69438 1.1934,1.63567 2.5566,4.26964 3.0293,5.8533 0.4723,1.5836 1.6967,3.89196 2.7205,5.12961 1.0238,1.23755 2.8662,4.14471 4.0946,6.46012 2.1488,4.04997 2.2331,4.44737 2.2175,10.45692 -0.013,4.67772 -0.2821,6.76155 -1.0756,8.29569 -0.8472,1.63767 -0.9918,3.04376 -0.7219,7.00925 0.3994,5.85741 3.7875,16.18291 6.145,18.72421 0.8368,0.9019 2.6404,3.5806 4.0084,5.9528 1.5195,2.6347 4.1889,5.9052 6.8599,8.405 3.3669,3.1508 4.3725,4.4813 4.3725,5.7861 0,1.1823 0.6724,2.2733 2.2264,3.6098 2.1752,1.8721 7.1961,6.8272 13.1772,13.0059 4.5094,4.6588 12.3223,13.8694 12.3223,14.5268 0,0.5598 3.524,4.6488 6.8291,7.9246 0.8757,0.868 1.9566,2.2711 2.4018,3.1186 1.2037,2.2887 3.4948,5.0479 8.5699,10.3207 2.5045,2.602 4.9064,5.5723 5.3373,6.6011 0.8019,1.9136 6.55,8.8678 8.067,9.7587 0.4638,0.2727 1.3976,1.583 2.0759,2.9123 0.6779,1.3292 2.0892,3.0472 3.1362,3.8178 1.0471,0.7704 2.2661,2.094 2.7091,2.9415 0.4435,0.8467 2.7034,3.6477 5.0232,6.2234 2.3196,2.5758 5.3264,6.1573 6.6819,7.9596 1.3554,1.8018 3.4663,4.2693 4.6906,5.483 1.2244,1.2138 3.4821,3.8704 5.0169,5.9032 1.5348,2.0336 3.9654,4.9446 5.4009,6.4695 1.4356,1.5253 3.0669,3.5067 3.6256,4.4037 0.558,0.8966 3.6417,4.5912 6.852,8.21 3.2104,3.6187 6.1255,7.1153 6.4775,7.7702 0.3522,0.6553 3.1372,3.8921 6.1891,7.1936 3.0516,3.3011 6.3625,7.0824 7.3566,8.4026 1.8089,2.4004 1.8089,2.4004 2.5658,-1.2324 1.7404,-8.3475 5.1507,-29.755 6.6158,-41.5251 16.9687,-136.311 -12.4848,-272.96507 -83.9285,-389.398857 -46.3726,-75.574134 -110.1913,-141.283984 -184.60038,-190.070443 -77.9432,-51.10347 -166.3299,-83.52484 -258.53143,-94.83259 -135.71228,-16.64396 -271.3362,11.74414 -387.55064,81.12012 -84.14593,50.232189 -155.53952,120.674509 -206.53468,203.782913 -10.40545,16.958017 -30.06218,53.110017 -30.06218,55.289387 0,1.06931 3.64074,2.1218 9.24211,2.67178 9.81579,0.96374 15.38145,1.71788 16.14053,2.18695 0.41684,0.25765 3.12486,0.68171 6.01779,0.94234 15.87497,1.43019 18.88336,2.13959 22.34024,5.26799 3.16537,2.86462 3.85683,7.01987 4.53558,27.25838 0.18684,5.57161 0.60492,10.62569 0.92908,11.23128 0.32406,0.60561 0.84568,3.6717 1.15907,6.81362 0.60183,6.0332 2.84431,14.14964 4.68804,16.96844 0.60552,0.92563 2.42061,3.07958 4.03368,4.7866 1.61308,1.70701 3.22571,3.87385 3.58355,4.81518 0.37921,0.99735 0.65072,6.92408 0.65072,14.20362 0,18.2238 1.66932,23.58374 8.86853,28.47572 2.53476,1.72245 13.38389,4.59525 18.2283,4.82683 1.87107,0.0894 4.61385,0.49846 6.09501,0.90891 1.69604,0.47008 9.22323,0.84328 20.3325,1.00821 24.42052,0.36248 43.68561,0.73937 58.9208,1.15267 7.11638,0.19306 18.76143,0.46736 25.87775,0.6095 7.11644,0.14214 15.43429,0.5547 18.48419,0.91682 18.34903,2.17841 29.6228,-1.80948 33.38872,-11.81076 2.07608,-5.51373 1.17724,-12.83914 -3.34537,-27.26171 -1.54928,-4.94056 -1.94344,-6.02217 -5.71267,-15.6774 -1.11717,-2.86172 -2.65034,-7.43657 -3.40698,-10.16632 -0.75675,-2.72974 -2.09506,-6.95291 -2.97418,-9.38489 -5.18133,-14.3338 -3.28266,-40.58325 4.06997,-56.26783 1.35022,-2.88043 2.96466,-6.3462 3.58757,-7.70171 6.85464,-14.91755 6.49127,-14.34497 15.52188,-24.45421 4.0472,-4.53067 13.57497,-12.20599 15.15188,-12.20599 0.2321,0 1.49463,-0.57484 2.80556,-1.27748 2.057,-1.10247 3.62273,-1.29675 11.43089,-1.41824 8.08276,-0.12575 9.2419,-0.27923 10.87142,-1.43957 2.91683,-2.07696 4.56406,-6.06615 4.5534,-11.027537 -0.0171,-8.02694 -2.04282,-9.44368 -14.00858,-9.79762 -4.34417,-0.12849 -10.24554,-0.51407 -13.11406,-0.85683 -2.86853,-0.34276 -10.06755,-0.78363 -15.9979,-0.97971 -5.93035,-0.19606 -14.3868,-0.50977 -18.79218,-0.69709 -10.93414,-0.46493 -36.48838,-0.28491 -42.49922,0.29939 -3.85798,0.37503 -5.91164,0.24128 -9.55015,-0.62197 -2.54939,-0.60483 -5.32794,-1.10917 -6.17445,-1.12075 -0.84662,-0.0116 -4.45101,-0.99545 -8.00985,-2.18639 -5.40779,-1.80969 -7.11835,-2.716 -10.41423,-5.51765 -5.01226,-4.26059 -5.98577,-5.78529 -6.87163,-10.76223 -1.06403,-5.97807 -0.25043,-8.31385 4.26357,-12.24002 4.06997,-3.53998 7.97515,-5.44241 15.17768,-7.39399 2.71095,-0.73457 7.48995,-2.03664 10.61995,-2.89349 4.80803,-1.3162 7.48442,-1.60996 17.25185,-1.89366 6.35851,-0.18471 12.66997,-0.57674 14.02552,-0.87117 2.57881,-0.5602 50.83075,-1.5907 58.84115,-1.25664 2.54155,0.10599 17.23646,0.28805 32.65527,0.40451 29.13558,0.22014 56.30446,1.02124 57.93807,1.70841 0.88895,0.37388 14.19455,0.93228 30.16959,1.26603 3.89707,0.0814 8.33329,0.4474 9.85823,0.81324 1.52499,0.36581 5.68388,0.66804 9.24206,0.67154 8.81767,0.009 23.3645,1.09151 25.48259,1.8968 0.95367,0.3626 3.5815,0.61789 5.83963,0.56732 5.47493,-0.12258 13.383,1.07079 28.44314,4.29223 6.89624,1.47515 7.75763,1.76308 10.06876,3.36584 0.96301,0.66781 3.43766,1.7392 5.49933,2.38085 4.66405,1.45161 7.42728,3.13248 9.39867,5.71706 1.38054,1.80993 1.52717,2.57058 1.52717,7.92051 0,5.58684 -0.10599,6.07532 -1.89206,8.72181 -1.04065,1.54193 -2.111,2.80347 -2.37858,2.80347 -0.26759,0 -1.47046,0.66779 -2.67316,1.48393 -2.76483,1.87623 -10.79218,4.67114 -13.49225,4.6976 -1.12915,0.0111 -3.57792,0.58137 -5.44173,1.26743 -2.85062,1.04925 -5.39456,1.29783 -16.01957,1.56531 -6.94698,0.17488 -13.46264,0.56867 -14.47926,0.8751 -1.01664,0.3064 -5.3142,0.41903 -9.55012,0.25023 -4.23596,-0.16876 -12.05049,-0.41531 -17.36561,-0.54787 -5.31511,-0.13256 -10.16717,-0.39741 -10.78239,-0.58855 -1.27941,-0.39752 -27.78637,-1.2471 -38.39487,-1.23062 -6.06791,0.01 -7.45811,0.20427 -9.67967,1.35643 -1.42668,0.73993 -2.95161,1.35692 -3.38871,1.37102 -0.43709,0.0141 -1.87465,0.97935 -3.19458,2.14498 -2.02334,1.7868 -2.4424,2.58028 -2.67125,5.05749 -0.23469,2.540727 0.0898,3.646557 2.39985,8.175337 2.66343,5.22185 2.68456,5.24365 7.22561,7.45359 2.505,1.21903 5.97071,2.55395 7.70179,2.96647 1.73098,0.41252 4.1177,1.12215 5.30377,1.57703 1.18608,0.45482 4.51323,1.56681 7.39369,2.47102 6.05818,1.90176 15.9529,7.54095 18.00158,10.25944 0.77375,1.02672 3.27827,3.90914 5.56567,6.40543 2.28743,2.49627 4.15892,5.09275 4.15892,5.76994 0,0.67723 1.06999,3.29899 2.37774,5.82613 1.30776,2.5272 2.53995,5.79994 2.73818,7.27278 0.98764,7.33722 1.74445,11.2337 2.56167,13.18955 1.78695,4.27685 1.13348,41.99345 -0.86864,50.13591 -0.29734,1.20919 -1.13932,3.72345 -1.87106,5.58726 -1.57927,4.02258 -2.00385,5.28683 -3.41431,10.16626 -0.58766,2.03326 -1.55558,4.25136 -2.15072,4.92911 -0.59524,0.67778 -1.70492,2.47994 -2.46598,4.00489 -0.7611,1.52496 -2.13512,3.74305 -3.05337,4.92911 -1.92858,2.4911 -6.10103,11.11465 -7.71383,15.94281 -1.43458,4.29473 -1.38048,14.03809 0.094,16.92099 2.19109,4.28431 4.50556,6.43055 9.63902,8.9385 7.10823,3.47271 12.14195,4.35689 24.76784,4.35017 5.76091,0 15.726,0.26955 22.14464,0.60591 6.41865,0.33627 11.82528,0.5223 12.01466,0.41337 0.18948,-0.10894 8.93955,-0.36802 19.44471,-0.57564 14.94429,-0.29546 20.84307,-0.17717 27.11003,0.54355 15.98945,1.83878 25.95076,3.7976 33.99024,6.68397 1.41197,0.50696 3.90736,1.1191 5.54521,1.36039 1.63796,0.24125 4.503,1.11568 6.36679,1.94318 1.86386,0.82745 5.8839,2.34674 8.93341,3.37618 3.04954,1.02941 6.79259,2.50397 8.31786,3.27687 8.14948,4.12932 12.67583,6.58555 13.52741,7.34064 0.52384,0.46453 1.92286,1.30288 3.10891,1.8631 3.60234,1.70159 5.93251,3.11491 7.99079,4.8469 1.07909,0.908 2.14862,1.6512 2.3768,1.65151 0.2281,3.7e-4 1.80533,1.31735 3.50483,2.92663 1.69943,1.60935 4.47203,4.03151 6.16136,5.3827 1.68926,1.35114 3.61156,3.15335 4.27175,4.00488 0.66018,0.85153 2.48462,2.79594 4.05436,4.32086 1.56973,1.52494 3.30647,3.46577 3.85938,4.31297 0.55284,0.8472 2.39299,3.4812 4.08915,5.8533 1.69617,2.3721 3.69096,5.5606 4.43287,7.0856 0.74191,1.5249 2.23624,4.063 3.32076,5.6402 1.08456,1.5772 2.16296,4.0725 2.39637,5.5452 0.23347,1.4727 1.08106,3.6482 1.88339,4.8344 1.40499,2.0764 2.81343,6.694 3.70646,12.1503 0.23409,1.4302 0.91571,3.2326 1.51481,4.0049 1.04416,1.3464 1.2722,2.3346 2.45745,10.6463 0.28996,2.0336 0.96584,4.8062 1.50199,6.1616 0.9207,2.3277 1.58261,5.5995 2.8664,14.1713 1.09978,7.3421 2.28388,13.0041 2.99905,14.3405 0.40131,0.7497 0.6726,2.2661 0.60326,3.3695 -0.12703,2.0194 0.74435,7.4869 2.28389,14.3292 0.45726,2.033 1.13246,7.8557 1.49968,12.9388 0.36721,5.0832 1.04251,10.9056 1.49977,12.9389 0.60759,2.7004 0.85317,9.8413 0.91037,26.4939 0.078,22.7968 0.078,22.7968 2.1404,26.1859 3.34595,5.4982 5.77315,11.1834 6.18139,14.4791 0.42952,3.4635 0.39235,3.5434 -3.06879,6.634 -3.94199,3.5201 -8.44052,4.2506 -27.37918,4.4458 -8.64136,0.089 -18.6228,0.3796 -22.18098,0.6459 -6.05838,0.4536 -22.23208,0.7972 -37.97946,0.8073 -6.86452,0.01 -6.86452,0.01 -8.52187,2.1773 -1.78099,2.3348 -4.84937,14.0053 -5.85196,22.2582 -0.28821,2.3717 -0.93491,5.5605 -1.43714,7.0853 -0.66474,2.0188 -0.85609,4.8342 -0.70354,10.3507 0.23937,8.6543 1.395,15.969 4.05916,25.6936 1.02132,3.7277 2.05403,8.2006 2.29507,9.9399 0.2483,1.7924 1.16185,4.2567 2.10798,5.6864 0.91842,1.3877 1.66986,3.0787 1.66986,3.7582 0,1.0912 4.66497,11.7654 6.20361,14.1951 0.32195,0.508 1.5326,2.9236 2.69033,5.3677 1.15777,2.4439 2.92131,5.6321 3.91893,7.0852 0.99767,1.4531 2.45106,4.167 3.2298,6.031 0.77879,1.8637 1.77801,3.8185 2.22055,4.3433 0.44255,0.5256 1.22195,2.138 1.73207,3.5838 0.51005,1.4457 1.49675,3.4284 2.19259,4.4051 0.69585,0.9775 1.99984,3.3852 2.89781,5.3506 0.89789,1.9657 2.41387,4.6552 3.36879,5.9769 0.95494,1.3216 1.73626,2.7558 1.73626,3.1876 0,0.4315 0.69313,1.6082 1.54036,2.615 0.84715,1.0065 1.54323,2.0677 1.54681,2.3576 0.006,0.2903 1.25122,2.1853 2.7726,4.2122 1.52138,2.0264 2.76614,3.9986 2.76614,4.3821 0,0.3835 0.79635,1.6995 1.76975,2.9243 0.97335,1.2249 3.67666,5.5763 6.00732,9.6708 2.33068,4.0937 5.26383,9.2469 6.51805,11.4507 1.2543,2.2045 3.1258,4.9707 4.15893,6.1475 1.03315,1.1769 1.87852,2.5809 1.87852,3.1207 0,0.5394 1.07995,2.9559 2.39995,5.3698 1.32001,2.4137 2.5974,5.3591 2.83868,6.5453 0.2413,1.1861 1.08574,3.4038 1.87649,4.9291 2.34292,4.5178 3.41608,13.9174 3.49615,30.6229 0.056,11.7563 -0.13695,15.5791 -0.97518,19.2842 -0.57509,2.5416 -1.32655,5.8684 -1.67006,7.3936 -0.34345,1.525 -1.99904,5.6947 -3.67912,9.2663 -1.68003,3.5711 -3.05467,6.7609 -3.05467,7.0873 0,0.3265 -0.99317,1.9797 -2.20718,3.6728 -1.21396,1.693 -2.725,4.08 -3.35785,5.304 -0.63278,1.2239 -2.89742,3.9832 -5.03237,6.132 -2.13501,2.1483 -4.31001,4.5327 -4.83342,5.2984 -0.52345,0.7652 -1.82173,2.0261 -2.88522,2.8021 -1.06344,0.7757 -3.42508,2.5589 -5.24818,3.9627 -1.82302,1.404 -5.2541,3.5295 -7.62466,4.7234 -2.37046,1.1938 -4.66584,2.5993 -5.10081,3.1232 -0.4349,0.5242 -2.35641,1.5384 -4.27003,2.2547 -1.91354,0.7156 -3.75978,1.528 -4.10276,1.8043 -1.07022,0.8629 -13.89109,4.9502 -15.52714,4.9502 -0.85487,0 -3.11931,0.4028 -5.03202,0.8957 -12.94464,3.3332 -30.04175,3.5576 -42.91051,0.5636 -3.7276,-0.8671 -7.82285,-1.9663 -9.10048,-2.4425 -1.27765,-0.4758 -2.94123,-0.8676 -3.69682,-0.8707 -0.75562,-0.01 -2.76015,-0.6877 -4.45453,-1.5215 -1.69438,-0.8331 -3.43678,-1.524 -3.87193,-1.5346 -0.43518,-0.011 -2.65326,-0.9587 -4.92911,-2.1073 -2.27581,-1.1487 -5.38552,-2.6809 -6.91047,-3.4052 -4.65647,-2.2114 -21.42312,-15.3526 -22.74903,-17.8303 -0.32295,-0.603 -2.51291,-3.3767 -4.86667,-6.1633 -2.35369,-2.787 -4.44616,-5.9003 -4.64995,-6.9193 -0.20377,-1.019 -1.14693,-3.0176 -2.0959,-4.4419 -1.91454,-2.8731 -3.99573,-7.7567 -5.30472,-12.4479 -0.47283,-1.6941 -1.15759,-3.9124 -1.52168,-4.9292 -1.95076,-5.4472 -2.60343,-8.9828 -2.86947,-15.5459 -0.16161,-3.9883 -0.60327,-8.4067 -0.98141,-9.8193 -0.37802,-1.4125 -0.52815,-3.908 -0.33336,-5.5452 0.19467,-1.6376 0.62144,-6.4425 0.94823,-10.6788 0.32681,-4.2359 0.78021,-8.9491 1.00763,-10.4745 0.67115,-4.5001 3.75271,-13.5545 6.1071,-17.9437 1.20398,-2.2446 2.60756,-5.2671 3.11902,-6.7171 0.51152,-1.4497 2.40438,-4.8808 4.20653,-7.6252 5.11624,-7.7914 6.57045,-10.1605 6.57045,-10.7046 0,-0.2769 1.18742,-2.4318 2.63866,-4.7878 1.45124,-2.3567 4.25679,-7.3348 6.23452,-11.0625 1.97766,-3.7278 3.95761,-7.1931 4.39991,-7.7018 0.44217,-0.508 1.41551,-2.5878 2.16288,-4.6206 0.74736,-2.0336 1.71736,-4.1128 2.15549,-4.6214 0.43811,-0.508 0.99328,-1.7557 1.23365,-2.7725 0.24032,-1.0168 1.09369,-2.731 1.89638,-3.8098 0.80269,-1.0788 1.45721,-2.188 1.45451,-2.4646 0,-0.2767 2.19351,-4.9395 4.88057,-10.3614 2.68698,-5.4219 6.68728,-14.1558 8.88956,-19.4084 3.48876,-8.3206 4.78759,-12.0426 7.20267,-20.6407 0.28557,-1.0162 0.9526,-3.3355 1.4823,-5.1539 0.52969,-1.8178 0.96305,-4.0704 0.96305,-5.0053 0,-0.9351 0.43349,-2.9137 0.9633,-4.3965 2.24988,-6.2972 2.40039,-29.3166 0.2682,-41.0167 -1.31686,-7.2261 -5.47998,-19.2102 -6.94576,-19.9949 -2.54798,-1.3636 -20.57485,-2.0828 -36.49113,-1.4563 -11.5274,0.454 -36.8519,0.3955 -39.74089,-0.091 -3.22131,-0.5427 -8.57098,-4.0628 -11.75904,-7.7369 -2.32512,-2.6796 -2.89119,-3.8175 -3.19844,-6.4293 -0.37765,-3.2095 0.49187,-6.5125 2.65208,-10.0737 0.51386,-0.8469 1.2629,-2.0945 1.66438,-2.7725 0.40148,-0.6775 1.46583,-2.4433 2.36504,-3.9231 2.45592,-4.0417 2.56462,-6.5843 0.521,-12.1873 -1.5948,-4.3729 -2.24557,-5.2825 -7.52387,-10.5181 -5.1909,-5.149 -6.53951,-6.1093 -13.27161,-9.4505 -7.49359,-3.719 -7.49359,-3.719 -21.35667,-4.038 -14.85487,-0.3411 -49.57066,-0.6728 -68.69938,-0.6564 -13.98755,0.012 -11.24465,0.041 -39.43283,-0.4334 -12.53838,-0.2118 -25.56965,-0.5462 -28.95841,-0.7434 -6.36796,-0.3706 -41.65469,-0.7793 -57.91697,-0.67 -5.08316,0.034 -18.94624,0.1149 -30.8069,0.1798 -60.68582,0.3311 -68.78482,0.5337 -72.33343,1.8108 -2.58162,0.9291 -3.92626,1.9336 -6.00735,4.4882 -1.47475,1.8102 -2.68131,3.6388 -2.68131,4.0642 0,0.4252 -0.42601,1.6271 -0.94673,2.671 -1.04014,2.0846 -1.92357,8.8079 -2.40665,18.3159 -0.17216,3.3885 -0.72589,7.8249 -1.23051,9.8579 -0.50461,2.0334 -0.92731,6.2453 -0.93944,9.36 -0.0121,3.1145 -0.2677,5.8149 -0.56809,6.0003 -0.30039,0.1856 -1.71845,3.5011 -3.15125,7.3675 -1.64399,4.4361 -3.02353,7.2232 -3.73926,7.5547 -2.04559,0.9461 -7.96916,8.3975 -8.71834,10.9666 -0.40045,1.3733 -1.24038,3.2069 -1.86632,4.0746 -0.97555,1.3522 -1.21936,3.51 -1.7058,15.0955 -0.31221,7.4347 -0.74423,16.4285 -0.96016,19.9869 -0.21586,3.5583 -0.45355,8.9648 -0.52818,12.0146 -0.0746,3.0502 -0.31092,6.2411 -0.52509,7.0915 -0.21415,0.8505 -0.68648,4.6966 -1.04962,8.5469 -0.36315,3.8506 -0.9011,7.4525 -1.19552,8.0044 -0.29441,0.5515 -0.68255,4.7457 -0.86256,9.3209 -0.17994,4.5744 -0.61079,9.1496 -0.95738,10.1662 -0.34665,1.0163 -0.78992,4.6209 -0.98521,8.0099 -0.51637,8.9608 -0.68522,10.8365 -1.20021,13.332 -0.51068,2.4749 -6.73766,10.3891 -8.17422,10.3891 -0.47529,0 -1.75145,0.4702 -2.83602,1.0456 -1.31622,0.6976 -4.84938,1.2829 -10.62656,1.7591 -8.37305,0.6909 -13.21813,1.6867 -13.21813,2.7177 0,1.053 12.86392,21.9159 21.88123,35.4877 49.88945,75.0863 116.48433,138.451 194.38303,184.95391 79.50313,47.4602 168.04716,75.83896 261.04638,83.66616 24.32626,2.0476 54.85172,2.6354 78.44551,1.5113 z M 668.13048,865.53383 c 1.21659,-0.5081 3.09221,-0.9244 4.16798,-0.9244 2.42217,0 13.03665,-2.2815 14.66278,-3.1519 0.65754,-0.3518 2.50223,-1.028 4.09926,-1.502 1.59702,-0.4746 4.27766,-1.8395 5.95695,-3.0336 1.67928,-1.1934 3.41178,-2.1703 3.84991,-2.1703 1.71592,0 6.13463,-2.7985 9.6692,-6.1238 2.04005,-1.9193 5.13209,-4.6521 6.87105,-6.0732 3.73289,-3.0497 9.43636,-9.8926 11.14614,-13.373 0.66597,-1.3554 1.66019,-3.2961 2.20935,-4.3127 2.9744,-5.5062 6.51091,-20.6549 6.54463,-28.0346 0.0135,-2.9614 -0.50726,-7.7541 -1.19873,-11.0296 -0.67244,-3.1864 -1.2235,-6.6519 -1.22467,-7.7017 0,-1.8952 -3.23055,-10.6143 -4.34535,-11.7363 -0.31993,-0.322 -0.58167,-1.1737 -0.58167,-1.8931 0,-2.1903 -1.93054,-7.2883 -3.37815,-8.9206 -0.75151,-0.8468 -1.83417,-2.7501 -2.40588,-4.2287 -0.57173,-1.4787 -2.37407,-4.8058 -4.00527,-7.3934 -2.95427,-4.687 -5.01852,-8.4015 -11.17507,-20.1088 -3.91759,-7.4498 -8.36238,-14.9573 -9.84867,-16.6358 -0.60025,-0.6774 -2.23016,-3.9779 -3.62209,-7.3336 -1.39187,-3.3561 -3.17407,-6.9606 -3.96045,-8.0102 -2.08316,-2.7802 -5.218,-8.4639 -6.19436,-11.2309 -0.46589,-1.3205 -1.72387,-3.7833 -2.79558,-5.4728 -1.0718,-1.69 -2.33756,-4.3817 -2.81299,-5.9818 -0.98818,-3.3266 -5.59594,-13.0033 -7.23562,-15.1957 -0.6044,-0.8078 -1.09892,-1.977 -1.09892,-2.5979 0,-1.2962 -5.64299,-15.4742 -8.98194,-22.567 -1.23974,-2.6337 -2.49325,-5.9831 -2.78558,-7.4429 -0.68722,-3.4324 -2.25202,-6.7058 -3.4201,-7.1538 -2.19155,-0.8413 -4.36505,2.2322 -5.41095,7.6518 -0.22886,1.1861 -0.78594,3.1267 -1.2379,4.3129 -1.77771,4.6654 -3.01316,7.7867 -3.81696,9.643 -0.46225,1.0679 -0.8405,2.3941 -0.8405,2.9475 0,0.5528 -0.68821,2.3634 -1.52946,4.0237 -0.84111,1.6599 -2.3699,5.5479 -3.39719,8.6398 -1.02723,3.0923 -2.27599,6.2449 -2.77499,7.0068 -0.49903,0.7613 -1.4414,2.8947 -2.09414,4.7402 -0.65279,1.8461 -2.18089,5.2966 -3.39578,7.6687 -1.21491,2.3723 -2.78175,6.0312 -3.48181,8.1309 -0.70013,2.0994 -1.78914,4.4737 -2.42013,5.2759 -0.631,0.8019 -1.69937,3.0294 -2.37421,4.9492 -0.67486,1.9203 -1.79051,4.2827 -2.47922,5.2495 -1.56734,2.2012 -7.47611,14.2288 -7.47611,15.2183 0,0.4025 -0.88436,1.9527 -1.96516,3.4437 -1.08081,1.4909 -2.4823,4.0707 -3.11439,5.7326 -0.63212,1.6623 -1.96585,4.0126 -2.96394,5.2235 -0.99805,1.2109 -1.81472,2.5005 -1.81472,2.8656 0,0.3657 -0.69203,1.6027 -1.53789,2.7491 -1.90556,2.5829 -11.78574,22.5913 -14.45329,29.2697 -2.15964,5.4068 -3.06229,8.2722 -3.49309,11.0905 -0.15548,1.0163 -0.54612,2.8189 -0.86813,4.005 -0.5007,1.8437 -1.27117,11.2044 -1.24254,15.095 0.006,0.6781 0.0179,3.312 0.0289,5.8536 0.0301,6.9528 1.13963,14.6525 2.49478,17.3087 0.66416,1.3018 1.50201,3.7402 1.86198,5.4187 0.3684,1.7179 1.54736,4.2185 2.69683,5.7198 1.12319,1.4672 2.35142,3.6387 2.72937,4.825 0.71655,2.2501 3.37816,5.669 9.62654,12.3651 8.59517,9.2111 13.13463,12.791 19.51713,15.391 1.80399,0.7347 4.11175,1.7038 5.12834,2.1529 9.69434,4.2851 12.24897,5.1854 16.32767,5.757 8.45409,1.1844 10.73806,1.4424 16.63573,1.8796 3.21932,0.2388 6.07019,0.4841 6.33519,0.5444 0.26505,0.061 1.47723,-0.3065 2.69378,-0.8146 z m 423.19162,-441.5297 c 1.7568,-1.7139 1.8587,-2.0919 2.0618,-7.6508 0.2042,-5.5753 0.1219,-6.027 -1.7636,-9.6934 -2.0888,-4.0617 -8.7779,-11.255 -12.0048,-12.9095 -3.7063,-1.8998 -8.3686,-3.1035 -10.6119,-2.7396 -2.6299,0.4266 -6.0308,3.4791 -6.9376,6.2262 -1.0019,3.0367 0.1656,10.4299 2.0351,12.8807 0.8464,1.1095 1.9554,3.0148 2.4652,4.2345 1.0265,2.4566 6.2818,7.8135 9.6463,9.8333 3.0896,1.8539 5.3428,2.312 9.5643,1.9443 3.0104,-0.2623 4.0401,-0.6569 5.5452,-2.1257 z m -129.27698,-38.0638 c 2.6492,-0.9785 6.0647,-2.3368 7.5895,-3.0184 1.525,-0.6822 6.2385,-2.6925 10.4743,-4.4686 4.2364,-1.7753 8.3633,-3.744 9.1712,-4.3748 0.8083,-0.6306 1.8267,-1.1468 2.2628,-1.1468 0.4361,0 2.9633,-1.0833 5.6159,-2.4071 2.65278,-1.324 7.44448,-3.6999 10.64868,-5.2795 3.2034,-1.5798 7.4208,-4.0723 9.372,-5.5389 1.9507,-1.4665 5.5287,-3.4438 7.9507,-4.3941 2.422,-0.9502 4.5474,-2.1032 4.7241,-2.5623 0.176,-0.459 1.469,-1.3746 2.8731,-2.0347 1.4041,-0.66 3.8363,-2.239 5.4045,-3.5089 1.5683,-1.2697 4.8897,-3.4906 7.3805,-4.9353 5.5025,-3.1914 11.3876,-7.46512 19.2918,-14.0091 6.2021,-5.13474 9.4311,-7.64922 12.0388,-9.37534 2.1742,-1.43948 3.6671,-3.36287 3.6831,-4.74655 0.023,-1.99484 -7.7373,-17.31919 -10.0887,-19.92182 -1.2178,-1.34785 -2.6429,-3.47712 -3.1673,-4.73167 -0.5241,-1.25452 -2.0036,-3.4406 -3.2881,-4.85797 -1.2844,-1.41736 -3.2709,-3.96328 -4.414,-5.65765 -1.1428,-1.69438 -3.6749,-5.2988 -5.6271,-8.00981 -1.9514,-2.71102 -5.707,-7.93832 -8.3452,-11.61628 -2.6382,-3.67795 -6.095,-8.20485 -7.6812,-10.05976 -1.5862,-1.85493 -3.9317,-4.94549 -5.212,-6.86779 -3.4774,-5.22139 -6.9977,-8.7325 -8.7552,-8.7325 -1.2748,0 -15.1628,6.19909 -17.9605,8.01689 -0.5081,0.33032 -2.8096,1.58339 -5.1145,2.78477 -2.3041,1.20134 -5.49288,3.11052 -7.08528,4.24258 -1.5923,1.13216 -3.5208,2.24979 -4.2848,2.48364 -0.7645,0.2339 -2.2081,1.11381 -3.2084,1.95537 -1.0002,0.84154 -3.5634,2.23391 -5.6956,3.09408 -2.1329,0.86026 -4.4325,2.04218 -5.1099,2.62658 -2.0501,1.7674 -4.2281,2.95427 -6.2295,3.39375 -1.8996,0.41733 -4.0259,2.65858 -4.7825,5.04142 -0.4696,1.4803 1.8695,6.23212 4.5965,9.3382 0.9871,1.12404 1.7942,2.31748 1.7942,2.65209 0,0.3347 1.0797,1.78065 2.3993,3.21328 1.3195,1.4327 5.0442,6.62516 8.2767,11.53886 3.2329,4.9137 7.1453,10.73622 8.6942,12.93886 1.5491,2.2027 3.3069,4.97534 3.9054,6.16141 0.5991,1.18606 2.4929,3.98537 4.20908,6.22071 4.6673,6.07861 6.0218,9.22463 5.5392,12.86483 -0.7421,5.59164 -5.7118,14.45992 -11.19838,19.98322 -4.6331,4.6637 -11.9324,10.8444 -15.312,12.9648 -2.1861,1.372 -5.9413,3.8115 -8.3442,5.4211 -2.403,1.61 -4.5343,2.927 -4.7359,2.927 -0.7085,0 -11.002,6.405 -11.7635,7.3194 -0.4234,0.5095 -0.7697,1.8095 -0.7697,2.8887 0,2.187 0.7927,3.0914 3.0804,3.5118 0.8474,0.1556 1.7291,0.3208 1.9603,0.3669 0.2314,0.046 2.5877,-0.7161 5.2372,-1.6946 z m -28.8574,-179.77701 c 2.9326,-1.58173 6.0254,-3.33555 6.8728,-3.89733 0.8468,-0.56181 2.5104,-1.39418 3.6964,-1.84973 1.186,-0.45561 3.2511,-1.61308 4.5886,-2.57215 1.3376,-0.95911 2.7591,-1.74382 3.1591,-1.74382 0.4004,0 1.0706,-0.41354 1.49,-0.91899 0.8381,-1.00962 11.2174,-6.80329 18.4888,-10.32005 2.5416,-1.22928 6.4233,-3.30599 8.6255,-4.61493 4.495,-2.67087 5.2902,-4.47208 3.2889,-7.44504 -0.6131,-0.91001 -2.5044,-3.89656 -4.2037,-6.63679 -5.0596,-8.15893 -8.2538,-12.71832 -9.5407,-13.6197 -0.6664,-0.467 -1.7441,-2.05179 -2.3944,-3.52177 -0.6501,-1.46994 -2.2158,-3.81706 -3.4797,-5.21579 -2.6051,-2.88373 -4.4673,-3.23666 -6.9153,-1.3109 -0.8615,0.67774 -2.1882,1.23228 -2.9485,1.23228 -0.7596,0 -1.7454,0.43852 -2.1906,0.97448 -0.4448,0.53596 -2.3499,1.78581 -4.2343,2.7774 -1.8839,0.99163 -3.8416,2.0586 -4.3497,2.37108 -0.5085,0.31245 -3.1424,1.57433 -5.8534,2.80414 -6.1629,2.79592 -13.2621,6.41955 -14.4792,7.39096 -0.5082,0.4057 -4.1961,2.45385 -8.1952,4.55143 -8.2479,4.32631 -12.2497,7.03474 -12.8746,8.71325 -0.65,1.74793 0.4462,4.74207 2.7099,7.39949 3.6267,4.2571 5.0464,6.303 6.3969,9.21804 0.7299,1.57479 2.1293,3.81553 3.1098,4.97944 0.9807,1.1639 2.889,3.77188 4.2402,5.79553 3.0779,4.61001 6.8517,8.33535 8.4432,8.33535 0.6698,0 3.6168,-1.29415 6.5492,-2.87588 z m -69.0345,-95.6521 c 1.2531,-0.64802 4.774,-2.33738 7.8238,-3.75415 3.0497,-1.41677 6.2384,-2.96109 7.0858,-3.43181 0.8469,-0.47076 3.8523,-1.96847 6.6779,-3.3283 2.8256,-1.35981 5.8779,-2.99965 6.783,-3.6441 0.9053,-0.64445 2.8882,-1.5063 4.4067,-1.91528 1.5192,-0.40895 3.494,-1.26509 4.3894,-1.90257 0.895,-0.637487 4.6405,-2.701097 8.3233,-4.585817 7.3205,-3.74629 10.3855,-6.38002 9.7515,-8.37831 -0.4685,-1.47534 -2.3577,-4.57578 -4.9899,-8.18837 -1.0639,-1.46009 -2.1428,-3.31098 -2.3971,-4.11312 -0.2545,-0.8021 -0.9416,-2.15687 -1.5265,-3.01064 -2.3408,-3.4159 -4.9246,-7.64123 -4.9246,-8.05319 0,-0.24002 -1.1784,-1.98986 -2.6185,-3.88858 -5.6048,-7.38922 -6.5012,-8.77757 -6.9106,-10.70612 -0.2334,-1.09745 -0.6844,-2.15633 -1.0025,-2.35298 -0.318,-0.19672 -1.9983,-2.48727 -3.7332,-5.09021 -4.2699,-6.40623 -5.9505,-8.12136 -7.9569,-8.12136 -2.0397,0 -8.56,2.91392 -8.982,4.01401 -0.1692,0.44127 -1.1891,1.15059 -2.2661,1.57628 -1.077,0.42574 -2.3741,1.10705 -2.8823,1.51403 -0.5082,0.40698 -1.6653,0.91578 -2.5713,1.13065 -0.906,0.21484 -2.9074,1.35293 -4.4481,2.52905 -1.5412,1.17611 -4.4044,2.98644 -6.3629,4.02294 -1.959,1.03649 -4.8869,2.70509 -6.5066,3.708 -1.6202,1.00288 -3.6093,1.99006 -4.4208,2.19369 -0.811,0.20368 -2.536,1.25648 -3.8322,2.33959 -3.2832,2.74336 -5.1574,3.85446 -7.2949,4.3255 -1.0117,0.22289 -3.1567,1.61552 -4.7662,3.09467 -3.9892,3.66589 -3.9373,6.11007 0.2393,11.25438 1.1392,1.40301 4.148,5.83308 6.6866,9.84464 2.5385,4.01154 5.8857,8.68004 7.4377,10.37442 1.5521,1.69437 3.3325,4.466977 3.9558,6.161357 0.6237,1.69439 2.2259,4.32835 3.561,5.85332 1.3349,1.52495 3.1392,4.02029 4.0097,5.54525 2.0209,3.54019 3.2229,4.94871 4.763,5.57889 1.7824,0.72961 1.9882,0.70236 4.4987,-0.59576 z"
       id="path3403"
       />
  </g>
</svg>
